<?xml version="1.0" encoding="UTF-8" standalone="no"?>
<!-- Created with Inkscape (http://www.inkscape.org/) -->

<svg
   xmlns:dc="http://purl.org/dc/elements/1.1/"
   xmlns:cc="http://creativecommons.org/ns#"
   xmlns:rdf="http://www.w3.org/1999/02/22-rdf-syntax-ns#"
   xmlns:svg="http://www.w3.org/2000/svg"
   xmlns="http://www.w3.org/2000/svg"
   xmlns:sodipodi="http://sodipodi.sourceforge.net/DTD/sodipodi-0.dtd"
   xmlns:inkscape="http://www.inkscape.org/namespaces/inkscape"
   width="512"
   height="512"
   id="svg4353"
   version="1.1"
   inkscape:version="0.48.2 r9819"
   sodipodi:docname="drawing_star.svg">
  <defs
     id="defs4355" />
  <sodipodi:namedview
     id="base"
     pagecolor="#ffffff"
     bordercolor="#666666"
     borderopacity="1.0"
     inkscape:pageopacity="0.0"
     inkscape:pageshadow="2"
     inkscape:zoom="1.979899"
     inkscape:cx="226.90127"
     inkscape:cy="167.82525"
     inkscape:document-units="px"
     inkscape:current-layer="layer1"
     showgrid="true"
     inkscape:showpageshadow="false"
     inkscape:window-width="1920"
     inkscape:window-height="1028"
     inkscape:window-x="-8"
     inkscape:window-y="-8"
     inkscape:window-maximized="1"
     inkscape:snap-nodes="true"
     inkscape:object-paths="false"
     inkscape:snap-intersection-paths="false"
     inkscape:object-nodes="false"
     inkscape:snap-smooth-nodes="false"
     inkscape:snap-bbox="false"
     showguides="true"
     inkscape:guide-bbox="true"
     inkscape:snap-midpoints="true">
    <inkscape:grid
       type="xygrid"
       id="grid4361"
       empspacing="64"
       visible="true"
       enabled="false"
       snapvisiblegridlinesonly="true"
       dotted="false" />
  </sodipodi:namedview>
  <metadata
     id="metadata4358">
    <rdf:RDF>
      <cc:Work
         rdf:about="">
        <dc:format>image/svg+xml</dc:format>
        <dc:type
           rdf:resource="http://purl.org/dc/dcmitype/StillImage" />
        <dc:title></dc:title>
      </cc:Work>
    </rdf:RDF>
  </metadata>
  <g
     inkscape:label="Background"
     inkscape:groupmode="layer"
     id="layer1"
     transform="translate(0,-540.36218)"
     style="display:inline">
    <rect
       style="fill:#002255;fill-opacity:1;stroke:#00112b;stroke-width:2;stroke-linecap:round;stroke-linejoin:round;stroke-miterlimit:4;stroke-opacity:1;stroke-dasharray:none;stroke-dashoffset:0"
       id="rect5180"
       width="512"
       height="512"
       x="0"
       y="0"
       transform="translate(0,540.36218)"
       ry="64" />
  </g>
  <g
     inkscape:groupmode="layer"
     id="layer2"
     inkscape:label="Guidelines"
     style="display:none">
    <path
       transform="translate(0,-540.36218)"
       style="fill:none;stroke:#000000;stroke-width:1px;stroke-linecap:butt;stroke-linejoin:miter;stroke-opacity:1"
       d="m 256,540.36218 c -128,128 -128,384 0,512.00002"
       id="path4387"
       inkscape:connector-curvature="0"
       sodipodi:nodetypes="cc" />
    <path
       transform="translate(0,-540.36218)"
       style="fill:none;stroke:#000000;stroke-width:1px;stroke-linecap:butt;stroke-linejoin:miter;stroke-opacity:1"
       d="m 256,540.36218 c 128,128 128,384 0,512.00002"
       id="path4387-7"
       inkscape:connector-curvature="0"
       sodipodi:nodetypes="cc" />
    <path
       style="fill:none;stroke:#000000;stroke-width:1px;stroke-linecap:butt;stroke-linejoin:miter;stroke-opacity:1"
       d="m 512,796.36218 c -128,-128 -384,-128 -512.00002,0"
       id="path4387-7-4"
       inkscape:connector-curvature="0"
       sodipodi:nodetypes="cc"
       transform="translate(0,-540.36218)" />
    <path
       transform="translate(0,-540.36218)"
       sodipodi:nodetypes="cc"
       inkscape:connector-curvature="0"
       id="path4436"
       d="m 512,796.36218 c -128,128 -384,128 -512.00002,0"
       style="fill:none;stroke:#000000;stroke-width:1px;stroke-linecap:butt;stroke-linejoin:miter;stroke-opacity:1" />
  </g>
  <g
     inkscape:groupmode="layer"
     id="layer3"
     inkscape:label="Fin Fills"
     style="display:inline">
    <path
       style="fill:#aaccff;fill-opacity:1;stroke:#d5e5ff;stroke-width:2;stroke-linecap:butt;stroke-linejoin:round;stroke-miterlimit:4;stroke-opacity:1;stroke-dasharray:none;stroke-dashoffset:0"
       d="M 171.08234,163.44605 C 185.38886,101.40624 211.56649,49.705307 249.79768,7.9829334 l 6.15139,-6.7131173 4.95997,5.2845462 c 36.39362,38.7751187 62.75323,88.8386747 77.61879,147.4176977 1.89286,7.45895 3.35373,13.64956 3.24638,13.7569 -0.10734,0.10734 -3.21885,-0.42427 -6.91446,-1.18137 -8.50244,-1.74185 -24.14889,-3.98158 -38.86215,-5.56298 -8.84499,-0.95067 -17.88752,-1.22836 -40,-1.22836 -22.11249,0 -31.15501,0.27769 -40,1.22836 -14.69401,1.57933 -30.35699,3.82058 -38.82863,5.55608 -3.67717,0.7533 -6.7826,1.36965 -6.90094,1.36965 -0.11834,0 0.2481,-2.00893 0.81431,-4.46429 z"
       id="path4454"
       inkscape:connector-curvature="0" />
    <path
       style="fill:#aaccff;fill-opacity:1;stroke:#d5e5ff;stroke-width:2;stroke-linecap:butt;stroke-linejoin:round;stroke-miterlimit:4;stroke-opacity:1;stroke-dasharray:none;stroke-dashoffset:0"
       d="M 160.64046,340.32133 C 130.73813,332.47667 114.46958,327.06714 94.92617,318.47038 61.369036,303.70924 32.606245,285.02171 7.2003247,261.47382 l -5.940131,-5.5057 6.6544167,-6.0974 C 48.41088,212.76423 97.271491,187.41441 156.33949,172.86505 c 6.08089,-1.49782 11.14942,-2.63006 11.26339,-2.5161 0.11397,0.11397 -0.43349,3.54941 -1.21657,7.6343 -4.57205,23.84972 -7.17443,52.19387 -7.17443,78.14137 0,26.21963 3.02988,58.39264 7.5006,79.6457 0.58896,2.7998 1.07083,5.23025 1.07083,5.401 0,0.56935 -3.17096,0.192 -7.14285,-0.84999 l 0,0 z"
       id="path4456"
       inkscape:connector-curvature="0" />
    <path
       style="fill:#aaccff;fill-opacity:1;stroke:#d5e5ff;stroke-width:2;stroke-linecap:butt;stroke-linejoin:round;stroke-miterlimit:4;stroke-opacity:1;stroke-dasharray:none;stroke-dashoffset:0"
       d="m 250.49276,504.76519 c -33.80329,-36.63862 -58.4668,-81.41447 -73.4154,-133.28342 -3.70491,-12.85539 -7.07042,-27.14286 -6.39369,-27.14286 0.29997,0 3.06475,0.48669 6.14395,1.08154 23.01887,4.44682 55.1848,7.48989 79.16998,7.48989 23.98518,0 56.15111,-3.04307 79.16998,-7.48989 3.0792,-0.59485 5.84803,-1.08154 6.15295,-1.08154 0.69121,0 -2.63993,14.14929 -6.36897,27.05274 -14.98828,51.8633 -40.15468,97.62519 -73.1929,133.09201 l -5.79053,6.21617 -5.47537,-5.93464 0,0 z"
       id="path4458"
       inkscape:connector-curvature="0" />
    <path
       style="fill:#aaccff;fill-opacity:1;stroke:#d5e5ff;stroke-width:2;stroke-linecap:butt;stroke-linejoin:round;stroke-miterlimit:4;stroke-opacity:1;stroke-dasharray:none;stroke-dashoffset:0"
       d="m 344.21188,341.17132 c 0,-0.17075 0.48188,-2.6012 1.07084,-5.401 2.78343,-13.23199 5.43743,-34.48861 6.763,-54.1668 2.1474,-31.87845 -0.33043,-71.76677 -6.43683,-103.62027 -0.78308,-4.08489 -1.33054,-7.52033 -1.21657,-7.6343 0.11396,-0.11396 5.18249,1.01828 11.26339,2.5161 59.068,14.54936 107.9286,39.89918 148.42487,77.00567 l 6.65443,6.0974 -5.94014,5.5057 c -40.22349,37.2818 -88.65376,62.46526 -149.64835,77.81627 -8.37295,2.1073 -10.93464,2.54802 -10.93464,1.88123 z"
       id="path4460"
       inkscape:connector-curvature="0" />
  </g>
  <g
     inkscape:groupmode="layer"
     id="layer5"
     inkscape:label="S Guide"
     style="display:none">
    <rect
       style="fill:none;stroke:#000000;stroke-width:1;stroke-linecap:butt;stroke-linejoin:miter;stroke-miterlimit:4;stroke-opacity:1;stroke-dasharray:none;stroke-dashoffset:0"
       id="rect5156"
       width="174.09146"
       height="174.09146"
       x="168.95427"
       y="168.95427"
       ry="0" />
  </g>
  <g
     inkscape:groupmode="layer"
     id="layer4"
     inkscape:label="S"
     style="display:inline">
    <text
       xml:space="preserve"
       style="font-size:269.59307860999996000px;font-style:normal;font-weight:bold;line-height:125%;letter-spacing:0px;word-spacing:0px;fill:#2a7fff;fill-opacity:1;stroke:#00112b;stroke-width:2;stroke-linecap:round;stroke-linejoin:round;stroke-miterlimit:4;stroke-dasharray:none;display:inline;font-family:Sans;-inkscape-font-specification:Sans Bold"
       x="135.68689"
       y="388.26974"
       id="text5174"
       sodipodi:linespacing="125%"
       transform="scale(1.139762,0.87737615)"><tspan
         sodipodi:role="line"
         id="tspan5176"
         x="135.68689"
         y="388.26974">S</tspan></text>
  </g>
</svg>
