<?xml version="1.0" encoding="UTF-8" standalone="no"?>
<!-- Created with Inkscape (http://www.inkscape.org/) -->

<svg
   xmlns:dc="http://purl.org/dc/elements/1.1/"
   xmlns:cc="http://creativecommons.org/ns#"
   xmlns:rdf="http://www.w3.org/1999/02/22-rdf-syntax-ns#"
   xmlns:svg="http://www.w3.org/2000/svg"
   xmlns="http://www.w3.org/2000/svg"
   xmlns:sodipodi="http://sodipodi.sourceforge.net/DTD/sodipodi-0.dtd"
   xmlns:inkscape="http://www.inkscape.org/namespaces/inkscape"
   width="512"
   height="512"
   id="svg2"
   version="1.1"
   inkscape:version="0.48.2 r9819"
   sodipodi:docname="Logo - redo.svg">
  <defs
     id="defs4" />
  <sodipodi:namedview
     id="base"
     pagecolor="#ffffff"
     bordercolor="#666666"
     borderopacity="1.0"
     inkscape:pageopacity="0.0"
     inkscape:pageshadow="2"
     inkscape:zoom="0.64"
     inkscape:cx="102.19025"
     inkscape:cy="243.17185"
     inkscape:document-units="px"
     inkscape:current-layer="layer1"
     showgrid="false"
     showborder="true"
     borderlayer="true"
     inkscape:snap-midpoints="true"
     inkscape:object-paths="false"
     inkscape:object-nodes="true"
     inkscape:snap-smooth-nodes="true"
     inkscape:snap-object-midpoints="true"
     inkscape:snap-center="true"
     inkscape:window-width="1920"
     inkscape:window-height="1028"
     inkscape:window-x="-8"
     inkscape:window-y="-8"
     inkscape:window-maximized="1"
     inkscape:snap-bbox="true" />
  <metadata
     id="metadata7">
    <rdf:RDF>
      <cc:Work
         rdf:about="">
        <dc:format>image/svg+xml</dc:format>
        <dc:type
           rdf:resource="http://purl.org/dc/dcmitype/StillImage" />
        <dc:title></dc:title>
      </cc:Work>
    </rdf:RDF>
  </metadata>
  <g
     inkscape:label="Layer 1"
     inkscape:groupmode="layer"
     id="layer1"
     transform="translate(0,-540.36218)">
    <rect
       style="fill:#ffffff;fill-opacity:1;stroke:#ffffff;stroke-width:2;stroke-miterlimit:4;stroke-opacity:1;stroke-dasharray:none"
       id="rect2985"
       width="238.28125"
       height="512"
       x="33.59375"
       y="56.53125"
       ry="43.921307"
       transform="translate(0,540.36218)" />
    <rect
       style="fill:#ffffff;fill-opacity:1;stroke:#ffffff;stroke-width:2;stroke-miterlimit:4;stroke-opacity:1;stroke-dasharray:none"
       id="rect2995"
       width="510"
       height="510"
       x="1"
       y="541.36218"
       ry="43.750408" />
    <rect
       style="fill:#00112b;fill-opacity:1;stroke:#000000;stroke-width:2;stroke-miterlimit:4;stroke-opacity:1;stroke-dasharray:none"
       id="rect3850"
       width="510"
       height="510"
       x="1"
       y="1.0000026"
       transform="translate(0,540.36218)"
       ry="43.750408" />
    <text
       xml:space="preserve"
       style="font-size:40px;font-style:normal;font-weight:normal;line-height:125%;letter-spacing:0px;word-spacing:0px;fill:#000000;fill-opacity:1;stroke:none;font-family:Sans"
       x="234.06641"
       y="810.48328"
       id="text3042"
       sodipodi:linespacing="125%"><tspan
         sodipodi:role="line"
         id="tspan3044"
         x="234.06641"
         y="810.48328" /></text>
    <text
       xml:space="preserve"
       style="font-size:291.79263306000001000px;font-style:normal;font-weight:bold;line-height:125%;letter-spacing:0px;word-spacing:0px;fill:#2a7fff;fill-opacity:1;stroke:#00112b;font-family:Sans;-inkscape-font-specification:Sans Bold;stroke-opacity:1;stroke-width:2.00000001999999990;stroke-miterlimit:4;stroke-dasharray:none"
       x="124.30924"
       y="1032.0154"
       id="text3046"
       sodipodi:linespacing="125%"
       transform="scale(1.1648608,0.85847166)"><tspan
         sodipodi:role="line"
         id="tspan3048"
         x="124.30924"
         y="1032.0154">S</tspan></text>
    <path
       style="fill:#aaccff;fill-opacity:1;stroke:#00112b;stroke-width:1.56250000000000000;stroke-miterlimit:4;stroke-opacity:1;stroke-dasharray:none"
       d="M 138.04786,883.18962 C 90.849287,864.17386 42.318164,833.98201 6.4379911,801.31342 L 1,796.36218 6.4379911,791.41093 C 44.820367,756.46411 98.179068,724.15008 148.0555,705.6474 c 4.50001,-1.66937 8.44556,-3.03522 8.7679,-3.03522 0.32233,0 -0.2715,2.72461 -1.31964,6.05468 -5.41906,17.21721 -10.7325,42.47241 -13.27263,63.08594 -1.90241,15.43829 -1.92044,53.7172 -0.032,67.96875 1.93102,14.57307 4.16077,26.77588 6.81556,37.29967 2.63174,10.43241 2.6713,10.74992 1.33789,10.73979 -0.53711,-0.004 -6.07422,-2.0612 -12.30468,-4.57139 l -1e-5,0 z"
       id="path3052"
       inkscape:connector-curvature="0" />
    <path
       style="fill:#aaccff;fill-opacity:1;stroke:#00112b;stroke-width:1.56250000000000000;stroke-miterlimit:4;stroke-opacity:1;stroke-dasharray:none"
       d="m 162.15907,158.44922 c 9e-4,-0.27265 1.71608,-5.06605 3.81151,-10.65199 C 184.86847,97.419872 215.93479,46.659046 252.7522,6.0003556 l 3.18349,-3.515625 4.69961,5.078125 c 17.26157,18.6518464 38.7995,48.3690984 54.64024,75.3906254 8.52093,14.535211 21.25731,40.677489 27.64924,56.751909 2.84359,7.15105 5.17016,13.14119 5.17016,13.31143 0,0.17022 -4.6582,-0.85933 -10.35156,-2.28791 -11.47642,-2.87966 -27.70946,-5.81284 -40.82032,-7.3759 -12.90312,-1.53829 -52.61024,-1.28858 -66.01562,0.41516 -22.32156,2.83692 -44.10705,7.4039 -61.52344,12.89739 -3.97461,1.25368 -7.22583,2.05633 -7.22493,1.78366 l 0,0 z"
       id="path3054"
       inkscape:connector-curvature="0"
       transform="translate(0,540.36218)" />
    <path
       style="fill:#aaccff;fill-opacity:1;stroke:#00112b;stroke-width:1.56250000000000000;stroke-miterlimit:4;stroke-opacity:1;stroke-dasharray:none"
       d="m 357.47624,351.6869 c 2.53332,-6.66312 7.94805,-31.46089 10.06121,-46.07717 2.85647,-19.75759 3.07754,-54.70866 0.48179,-76.17187 -2.42513,-20.05247 -7.82877,-44.90954 -13.98746,-64.34315 l -2.68858,-8.48376 2.18985,0.43797 c 3.27465,0.65493 20.92164,7.15474 30.29554,11.15857 40.01952,17.09338 81.72612,45.38703 116.6101,79.10802 l 8.98437,8.68485 -8.98437,8.68484 c -30.8682,29.8391 -66.31498,54.95568 -101.95313,72.24111 -13.26818,6.43541 -33.84796,14.92976 -39.66266,16.37084 -2.09133,0.51831 -2.13574,0.4652 -1.34666,-1.61025 z"
       id="path3056"
       inkscape:connector-curvature="0"
       transform="translate(0,540.36218)" />
    <path
       style="fill:#aaccff;fill-opacity:1;stroke:#00112b;stroke-width:1.56250000000000000;stroke-miterlimit:4;stroke-opacity:1;stroke-dasharray:none"
       d="m 248.59886,1040.3079 c -37.65376,-39.0867 -64.58716,-77.67814 -82.63542,-118.40401 -5.12639,-11.56769 -11.88911,-29.3132 -11.34817,-29.77782 0.14843,-0.12748 4.7023,1.13177 10.11975,2.79834 31.51208,9.69408 59.47852,14.35305 91.4392,15.23297 30.59739,0.8424 57.64529,-2.35488 85.95128,-10.16012 5.1685,-1.42519 9.40369,-2.36027 9.41154,-2.07795 0.0926,3.32902 -10.14974,29.76627 -17.55716,45.31823 -13.96323,29.3159 -30.0183,53.95442 -53.26443,81.74096 -8.20244,9.8045 -21.78474,24.509 -22.63857,24.509 -0.34917,0 -4.61428,-4.1308 -9.47802,-9.1796 z"
       id="path3062"
       inkscape:connector-curvature="0" />
  </g>
</svg>
